<svg viewBox="0 0 24 24" fill="none" xmlns="http://www.w3.org/2000/svg">
  <path d="M4.5 12C4.5 15.5 8 18 10 20.5L12 18.5C14 16.5 16.5 14.5 18 12C19.5 9.5 18.5 7.5 18.5 7.5C18.5 7.5 16 5 12 5C8 5 4.5 8 4.5 12Z" fill="currentColor" opacity="0.2"/>
  <path d="M18.5 7.5C18.5 7.5 16 5 12 5C8 5 4.5 8 4.5 12C4.5 12 4.5 15.5 8 18L10 20.5L12 18.5C14 16.5 16.5 14.5 18 12C19.5 9.5 18.5 7.5 18.5 7.5Z" stroke="currentColor" stroke-width="2" stroke-linecap="round" stroke-linejoin="round"/>
  <circle cx="14" cy="9" r="1.5" fill="currentColor"/>
</svg>
